<svg xmlns="http://www.w3.org/2000/svg"  viewBox="0 0 48 48" width="480px" height="480px"><rect width="9" height="2" x="23" y="33.037" fill="#eb7900"/><path fill="#f5bc00" d="M34,15.037L34,15.037L30,15c0,3.314-1.686,9-5,9l-5,2.037c-2.209,0-4,1.791-4,4v5h-0.001V40 c0,2.209,1.791,4,4,4H28c2.209,0,4-1.791,4-4v-4.963h-9v-2h9.343H34c4.971,0,9-4.029,9-9v0C43,19.066,38.971,15.037,34,15.037z"/><path fill="#3dd9eb" d="M27,25c2.209,0,4-2.791,4-5l1-4.963V8c0-2.209-1.791-4-4-4h-8c-2.209,0-4,1.791-4,4v7.037 l-1.966-0.007C9.049,15.014,5,19.049,5,24.034v0c0,4.958,4.008,8.983,8.966,9.003l0.034,0L17,33v-5l4-3H27z"/><path fill="#00b569" d="M18,33h-2v-3c0-3.309,2.691-6,6-6h4c2.206,0,4-1.794,4-4v-5h2v5c0,3.309-2.691,6-6,6h-4 c-2.206,0-4,1.794-4,4V33z"/><rect width="9" height="2" x="15.999" y="13.037" fill="#00b3d7"/><path fill="#fff" d="M28.5,37.037c0.837,0,1.5,0.664,1.5,1.498c0,0.822-0.664,1.502-1.5,1.502 c-0.821,0-1.5-0.677-1.5-1.502C27,37.702,27.679,37.037,28.5,37.037z"/><path fill="#fff" d="M19.5,11.037c-0.837,0-1.5-0.664-1.5-1.498c0-0.822,0.663-1.502,1.5-1.502 c0.821,0,1.5,0.677,1.5,1.502C21,10.372,20.321,11.037,19.5,11.037z"/></svg>