<svg width="174" height="158" viewBox="0 0 174 158" fill="none" xmlns="http://www.w3.org/2000/svg">
<path d="M86.9192 38.369C62.2598 38.369 42.3692 56.3982 42.3692 78.7501C42.3692 101.102 62.2598 119.131 86.9192 119.131C111.579 119.131 131.47 101.102 131.47 78.7501C131.47 56.3982 111.579 38.369 86.9192 38.369ZM86.9192 105.003C70.9835 105.003 57.956 93.2296 57.956 78.7501C57.956 64.2706 70.9452 52.4971 86.9192 52.4971C102.894 52.4971 115.883 64.2706 115.883 78.7501C115.883 93.2296 102.855 105.003 86.9192 105.003ZM143.683 36.7172C143.683 41.9538 139.03 46.136 133.292 46.136C127.515 46.136 122.901 41.9186 122.901 36.7172C122.901 31.5158 127.554 27.2985 133.292 27.2985C139.03 27.2985 143.683 31.5158 143.683 36.7172ZM173.19 46.2765C172.53 33.6597 169.351 22.4837 159.153 13.2758C148.995 4.06798 136.665 1.18613 122.746 0.553524C108.4 -0.184508 65.4004 -0.184508 51.0544 0.553524C37.1736 1.15099 24.8438 4.03283 14.6465 13.2407C4.44921 22.4485 1.30859 33.6245 0.610675 46.2414C-0.203558 59.2447 -0.203558 98.2202 0.610675 111.223C1.26982 123.84 4.44921 135.016 14.6465 144.224C24.8438 153.432 37.1349 156.314 51.0544 156.947C65.4004 157.684 108.4 157.684 122.746 156.947C136.665 156.349 148.995 153.467 159.153 144.224C169.312 135.016 172.491 123.84 173.19 111.223C174.003 98.2202 174.003 59.2799 173.19 46.2765ZM154.656 125.176C151.632 132.064 145.777 137.371 138.139 140.147C126.701 144.26 99.5597 143.31 86.9192 143.31C74.2793 143.31 47.0995 144.224 35.7003 140.147C28.1008 137.406 22.246 132.1 19.183 125.176C14.6465 114.808 15.6934 90.2072 15.6934 78.7501C15.6934 67.293 14.6853 42.6567 19.183 32.3242C22.2073 25.4359 28.062 20.129 35.7003 17.3526C47.1383 13.2407 74.2793 14.1896 86.9192 14.1896C99.5597 14.1896 126.739 13.2758 138.139 17.3526C145.738 20.0939 151.593 25.4007 154.656 32.3242C159.192 42.6918 158.145 67.293 158.145 78.7501C158.145 90.2072 159.192 114.843 154.656 125.176Z" fill="url(#paint0_linear)"/>
<defs>
<linearGradient id="paint0_linear" x1="86.9" y1="0" x2="86.9" y2="157.5" gradientUnits="userSpaceOnUse">
<stop stop-color="#FC290D"/>
<stop offset="1" stop-color="#8A078C"/>
</linearGradient>
</defs>
</svg>
