<svg width="169" height="156" viewBox="0 0 169 156" fill="none" xmlns="http://www.w3.org/2000/svg">
<g clip-path="url(#clip0)">
<rect width="169" height="156" fill="#272525" fill-opacity="0.01"/>
<path d="M151.628 38.878C151.736 40.5841 151.736 42.2907 151.736 43.9968C151.736 96.0372 116.885 156 53.188 156C33.5641 156 15.3345 149.541 0 138.328C2.78818 138.694 5.46876 138.816 8.3642 138.816C24.5563 138.816 39.462 132.6 51.365 121.997C36.1378 121.631 23.3769 110.297 18.9802 94.6967C21.1251 95.0622 23.2696 95.3061 25.5218 95.3061C28.6314 95.3061 31.7414 94.8184 34.6366 93.9656C18.766 90.3089 6.8627 74.4656 6.8627 55.3311V54.8439C11.4736 57.7689 16.8357 59.5972 22.5187 59.8406C13.1893 52.7717 7.07721 40.7061 7.07721 27.056C7.07721 19.7436 8.79268 13.0405 11.7954 7.19046C28.8457 31.0779 54.4747 46.6776 83.2128 48.3842C82.677 45.4592 82.3554 42.4126 82.3554 39.3657C82.3554 17.6717 97.7969 0 116.992 0C126.965 0 135.972 4.75311 142.299 12.4312C150.127 10.7251 157.633 7.43428 164.282 2.92502C161.708 12.0659 156.239 19.744 149.055 24.6186C156.025 23.7659 162.781 21.5717 169 18.5252C164.283 26.3248 158.385 33.2714 151.628 38.878Z" fill="#141414"/>
<path d="M151.628 38.878C151.736 40.5841 151.736 42.2907 151.736 43.9968C151.736 96.0372 116.885 156 53.188 156C33.5641 156 15.3345 149.541 0 138.328C2.78818 138.694 5.46876 138.816 8.3642 138.816C24.5563 138.816 39.462 132.6 51.365 121.997C36.1378 121.631 23.3769 110.297 18.9802 94.6967C21.1251 95.0622 23.2696 95.3061 25.5218 95.3061C28.6314 95.3061 31.7414 94.8184 34.6366 93.9656C18.766 90.3089 6.8627 74.4656 6.8627 55.3311V54.8439C11.4736 57.7689 16.8357 59.5972 22.5187 59.8406C13.1893 52.7717 7.07721 40.7061 7.07721 27.056C7.07721 19.7436 8.79268 13.0405 11.7954 7.19046C28.8457 31.0779 54.4747 46.6776 83.2128 48.3842C82.6771 45.4592 82.3554 42.4126 82.3554 39.3657C82.3554 17.6717 97.7969 0 116.992 0C126.965 0 135.972 4.75311 142.299 12.4312C150.127 10.7251 157.633 7.43428 164.282 2.92502C161.708 12.0659 156.239 19.744 149.055 24.6186C156.025 23.7659 162.781 21.5717 169 18.5252C164.283 26.3248 158.385 33.2714 151.628 38.878Z" stroke="#E3D2D2"/>
</g>
<defs>
<clipPath id="clip0">
<rect width="169" height="156" fill="white"/>
</clipPath>
</defs>
</svg>
