<svg width="166" height="156" viewBox="0 0 166 156" fill="none" xmlns="http://www.w3.org/2000/svg">
<path d="M162.531 24.4087C160.622 14.8009 154.997 7.23409 147.855 4.66618C134.91 0 83 0 83 0C83 0 31.0906 0 18.1449 4.66618C11.0029 7.23453 5.37786 14.8009 3.46873 24.4087C0 41.8234 0 78.1579 0 78.1579C0 78.1579 0 114.492 3.46873 131.907C5.37786 141.514 11.0029 148.766 18.1449 151.334C31.0906 156 83 156 83 156C83 156 134.909 156 147.855 151.334C154.997 148.766 160.622 141.514 162.531 131.907C166 114.492 166 78.1579 166 78.1579C166 78.1579 166 41.8234 162.531 24.4087ZM66.0224 111.146V45.1689L109.409 78.1585L66.0224 111.146Z" fill="#E30909"/>
<rect x="0.5" y="0.5" width="165" height="155" rx="34.5" stroke="#161212"/>
</svg>
